<svg version="1.1" id="Layer_1" xmlns="http://www.w3.org/2000/svg" xmlns:xlink="http://www.w3.org/1999/xlink" x="0px" y="0px"
	 width="100%" viewBox="0 0 405 101" enable-background="new 0 0 405 101" xml:space="preserve">
<path fill="#FDFEFF" opacity="1.000000" stroke="none" 
	d="
M269.000000,102.000000 
	C179.333344,102.000000 90.166687,102.000000 1.000024,102.000000 
	C1.000016,68.333351 1.000016,34.666695 1.000008,1.000033 
	C135.999969,1.000022 270.999939,1.000022 405.999939,1.000011 
	C405.999939,34.666630 405.999939,68.333260 405.999969,101.999947 
	C360.500000,102.000000 315.000000,102.000000 269.000000,102.000000 
M38.091091,28.991451 
	C38.091091,28.991451 38.335789,28.677223 38.175095,28.158905 
	C37.860176,28.001551 37.545261,27.844196 37.129482,27.797903 
	C37.129482,27.797903 37.274147,27.758158 37.054188,27.245667 
	C36.705109,27.142075 36.356033,27.038483 35.428364,26.420481 
	C29.895775,24.836851 26.043030,27.398752 23.259806,31.767307 
	C20.142284,36.660576 17.379324,41.779736 14.569057,46.616486 
	C19.134531,53.059074 20.141607,43.243237 23.727705,45.023430 
	C23.327398,48.725643 22.933195,52.371407 22.488960,56.479889 
	C20.288767,55.955082 18.557627,55.521961 16.816715,55.132519 
	C15.043226,54.735790 13.272828,54.150135 11.478905,54.051834 
	C5.485368,53.723423 2.792745,57.357655 6.123345,62.300770 
	C9.121510,66.750504 13.221623,70.790535 17.626060,73.887100 
	C25.537327,79.449165 34.370701,74.688019 34.951851,65.078224 
	C35.205009,60.892017 35.205006,60.892017 39.684464,60.560829 
	C39.501762,72.185120 49.610088,78.797050 58.269531,74.715485 
	C61.465019,73.209312 63.976139,70.285408 66.878242,68.113480 
	C70.157692,65.659157 73.525826,63.323349 77.375885,60.562813 
	C79.396683,72.872147 83.593567,76.379799 93.429047,74.831779 
	C98.423172,74.045738 103.088730,70.974182 107.804398,68.729111 
	C109.358269,67.989334 110.603333,66.600906 112.041153,65.468475 
	C118.495377,76.356674 122.209282,77.129158 132.301422,69.703033 
	C134.849625,67.827980 135.481400,69.349434 136.821381,71.063324 
	C141.737549,77.351303 147.526749,77.353485 152.467606,71.052200 
	C154.816879,68.056068 156.764572,64.745033 158.982895,62.418209 
	C159.636749,64.339226 160.290588,66.260246 161.328110,68.767487 
	C166.328629,73.850044 167.930084,73.621239 177.009979,66.183846 
	C183.582657,79.947678 191.767258,75.455833 199.931290,67.193855 
	C202.996185,72.239296 206.566391,74.960945 212.602554,73.839111 
	C212.904022,73.595154 213.205490,73.351189 213.786499,73.132820 
	C213.786499,73.132820 213.975800,72.925537 214.497040,72.855721 
	C214.703247,72.586830 214.909470,72.317940 215.036682,72.038681 
	C215.036682,72.038681 215.042892,72.118118 215.580612,71.978760 
	C215.775604,71.678566 215.970612,71.378372 216.063980,71.065948 
	C216.063980,71.065948 216.080261,71.167000 216.609680,70.998497 
	C216.789856,70.686768 216.970032,70.375046 217.054276,70.052658 
	C217.054276,70.052658 217.067108,70.148331 217.587463,69.971718 
	C217.762482,69.660881 217.937515,69.350052 218.029861,69.035408 
	C218.029861,69.035408 218.070984,69.107239 218.617035,68.870552 
	C218.887497,68.365814 219.157959,67.861084 219.454941,67.216911 
	C219.454941,67.216911 219.383209,67.339386 219.887741,67.166756 
	C220.025406,66.846573 220.163086,66.526382 220.191025,66.154739 
	C220.191025,66.154739 220.213257,66.273872 220.742508,66.090569 
	C220.891708,65.756737 221.040909,65.422905 221.091370,65.084641 
	C221.091370,65.084641 221.143707,65.168480 221.686737,64.904167 
	C221.928345,64.370049 222.169952,63.835941 222.458466,63.246975 
	C222.458466,63.246975 222.450134,63.318787 222.993332,63.008884 
	C223.980087,62.350502 224.966843,61.692120 225.942902,61.791157 
	C224.349106,69.624863 219.885147,74.899536 212.417068,77.986847 
	C208.855240,79.459312 205.618240,81.801704 202.394348,83.986526 
	C198.208633,86.823181 198.140411,89.929474 201.964249,92.903656 
	C207.770309,97.419601 216.770157,96.825195 222.436050,90.506882 
	C226.356415,86.135109 228.987671,80.609306 232.211639,75.609932 
	C233.271759,73.966003 234.036789,71.865280 235.528427,70.808830 
	C246.100952,63.320782 253.754578,53.413631 259.980072,42.239021 
	C260.632690,41.067596 261.544891,40.040771 262.569366,38.625320 
	C265.681702,42.833229 262.629578,45.432770 261.360931,48.138763 
	C259.294525,52.546387 256.388855,56.597485 254.653549,61.112720 
	C253.005783,65.400208 253.400604,70.333923 257.267181,73.208839 
	C261.018768,75.998207 265.720551,75.994110 269.900055,73.173622 
	C271.410583,72.154228 272.944427,71.070419 274.162262,69.737099 
	C276.605194,67.062546 278.109589,67.196770 279.978546,70.510849 
	C283.765411,77.225746 290.370453,77.720749 295.138123,71.755875 
	C297.616699,68.654884 299.680878,65.222641 302.047943,62.753593 
	C303.166504,65.121788 304.285065,67.489990 306.014282,70.429214 
	C310.856781,74.273117 314.917755,70.993935 318.949615,68.678787 
	C321.836212,74.013214 323.626160,75.062843 329.658417,74.789726 
	C333.161987,68.562660 336.665588,62.335594 340.076202,56.031185 
	C340.076202,56.031185 340.115845,56.145428 340.690460,55.845242 
	C341.491913,54.580288 342.293365,53.315334 343.017853,52.010639 
	C343.017853,52.010639 343.056732,52.088032 343.635773,51.767128 
	C344.733154,51.159760 345.830566,50.552387 347.104523,50.720734 
	C345.876221,53.879959 344.624420,57.030315 343.425690,60.200737 
	C342.030792,63.889999 343.173126,67.191704 346.555756,68.541641 
	C349.866943,69.863068 353.543274,70.174980 355.752350,65.598793 
	C357.834106,61.286308 360.698700,57.344704 363.307556,53.297100 
	C364.363312,51.659119 365.654205,50.172729 366.838074,48.617352 
	C367.221344,48.876907 367.604584,49.136463 367.987854,49.396019 
	C366.975708,52.061844 365.883270,54.700413 364.967712,57.399014 
	C362.887451,63.530506 364.035889,68.400063 368.227203,71.688385 
	C371.184418,74.008507 377.278656,73.815140 381.533569,69.780281 
	C387.507965,64.114830 392.701813,57.609142 398.012512,51.280731 
	C398.745026,50.407848 398.233978,48.491386 398.298615,47.058056 
	C396.602478,47.301807 394.791046,47.265049 393.254333,47.896698 
	C392.362213,48.263409 392.056732,49.856449 391.238068,50.635941 
	C386.556976,55.093060 381.801147,59.471611 377.033325,63.103710 
	C377.413849,61.331184 377.470337,59.403263 378.232605,57.813808 
	C381.090057,51.855457 384.178101,46.007710 387.097382,40.029118 
	C387.097382,40.029118 387.121796,40.148151 387.750305,39.779171 
	C389.374634,37.660633 390.104218,35.585590 387.390900,33.706287 
	C387.390900,33.706287 387.361847,33.642494 387.247223,33.134895 
	C386.961029,32.968960 386.674805,32.803024 386.254791,32.797684 
	C386.254791,32.797684 386.330078,32.602676 386.151978,32.097858 
	C385.823853,31.971888 385.495728,31.845917 385.120270,31.833841 
	C385.120270,31.833841 385.242950,31.820997 385.032837,31.302246 
	C384.686829,31.188337 384.340820,31.074429 383.413239,30.440620 
	C373.249268,27.746902 370.022980,37.586147 363.502808,41.503593 
	C362.353088,33.364849 357.522217,31.282755 350.525879,35.860455 
	C348.368713,37.271896 346.183868,38.641136 343.740479,39.384686 
	C343.966766,38.733482 344.193085,38.082283 344.463013,37.358929 
	C344.463013,37.358929 344.546997,37.366611 345.103607,37.112560 
	C344.847565,35.978050 344.591522,34.843540 344.329712,33.751072 
	C344.329712,33.751072 344.290283,33.735378 344.109955,33.222607 
	C343.792297,33.068054 343.474640,32.913506 343.106964,32.864460 
	C343.106964,32.864460 343.217041,32.825500 342.998138,32.325123 
	C342.661713,32.219234 342.325317,32.113350 341.382629,31.578140 
	C337.386841,30.188187 334.777924,31.718952 332.912659,35.333721 
	C330.054108,40.873600 327.304016,46.501308 323.982147,51.759621 
	C321.574036,55.571571 318.314545,58.845684 315.434692,62.359623 
	C314.796570,61.937939 314.158447,61.516251 313.520355,61.094566 
	C314.949188,57.464130 315.964935,53.589989 317.922607,50.271500 
	C319.896881,46.924862 318.572205,45.398487 315.897797,43.973103 
	C311.349609,41.549068 307.205566,43.112740 302.991455,48.806568 
	C299.347900,53.729458 295.712891,58.658688 291.462799,64.412750 
	C290.721283,55.130718 300.679596,38.775742 307.928772,36.515320 
	C309.363708,36.067890 311.789978,37.320103 313.151001,38.493732 
	C314.815552,39.929070 316.313171,42.332714 318.238495,39.957619 
	C319.257019,38.701172 319.270691,35.461502 318.342499,34.008850 
	C315.218475,29.119549 307.582123,27.623285 301.764008,30.055866 
	C293.748352,33.407242 288.954895,39.921917 284.242279,46.821358 
	C279.377411,53.943645 273.749329,60.544609 268.455139,67.373634 
	C267.802307,67.011612 267.149445,66.649582 266.496582,66.287552 
	C267.181213,64.252792 267.687042,62.134956 268.586060,60.199791 
	C270.756805,55.527176 273.217194,50.988369 275.360168,46.303841 
	C277.301605,42.059933 275.951996,38.916901 271.708649,36.943020 
	C269.994537,36.145679 268.369965,35.155903 266.298492,34.033653 
	C268.165131,31.665409 269.566071,29.888044 271.057312,27.996094 
	C268.711914,24.664968 265.568756,22.586868 262.063416,24.239691 
	C259.576508,25.412312 255.964798,29.010786 256.373230,30.649790 
	C257.857697,36.606827 254.428513,40.445660 251.757431,44.429890 
	C247.881287,50.211594 244.938629,56.994503 238.141525,59.361160 
	C239.052200,56.348988 240.331055,53.384571 240.730347,50.306076 
	C240.956482,48.562805 239.739090,46.632301 239.100388,44.858368 
	C239.100388,44.858368 239.200623,44.875065 238.997421,44.361843 
	C238.661392,44.238548 238.325363,44.115253 237.422134,43.462257 
	C232.578461,41.858292 229.249603,44.096092 226.407913,47.727139 
	C221.914001,53.469357 217.368652,59.171299 212.845078,64.890282 
	C213.525940,55.430725 217.515839,47.712944 223.512314,41.056690 
	C225.251068,39.126633 227.504974,37.364296 229.878738,36.421227 
	C231.165787,35.909901 234.288254,36.859005 234.694214,37.891731 
	C235.835464,40.794933 237.430435,41.824978 239.892471,40.201481 
	C242.615524,38.405899 241.794525,35.921154 240.089142,33.721737 
	C236.102829,28.580667 226.287247,27.251654 220.525528,31.226435 
	C213.204285,36.277058 207.942291,43.007168 203.577393,50.802631 
	C200.384369,56.505203 195.705017,61.375534 191.688187,66.616821 
	C191.087418,66.276917 190.486664,65.937019 189.885910,65.597115 
	C190.269638,63.424301 190.357773,61.146793 191.084396,59.095436 
	C196.327957,44.291962 202.984818,30.214315 212.635468,17.681757 
	C213.327454,16.783136 213.732574,14.822628 213.227310,13.986927 
	C210.890442,10.121814 204.612518,9.848403 202.368912,13.723186 
	C195.422775,25.719421 188.973099,38.004253 181.968262,49.964787 
	C179.331711,54.466587 175.701675,58.386536 172.524551,62.571739 
	C171.840164,62.187546 171.155762,61.803356 170.471375,61.419167 
	C171.666153,57.945560 172.604919,54.353119 174.143372,51.039040 
	C175.215576,48.729294 177.342789,46.282204 173.905670,44.930630 
	C171.146835,43.845783 167.365112,43.158779 164.858566,44.225330 
	C162.081924,45.406811 160.069824,48.648495 158.026672,51.231800 
	C154.502228,55.688000 151.211212,60.328823 147.822250,64.892181 
	C147.307770,62.826530 147.511902,61.188904 148.032990,59.659252 
	C151.028030,50.867264 155.074326,42.719566 163.004028,37.257759 
	C165.242264,35.716110 168.279465,34.323032 169.742569,37.794750 
	C170.940323,40.636826 172.367462,41.855942 174.823318,40.238186 
	C177.816284,38.266609 176.719040,35.652328 174.811859,33.405048 
	C170.653458,28.505051 161.252731,27.349413 155.594910,31.190725 
	C148.374619,36.092838 142.972351,42.564594 138.888840,50.321644 
	C135.882065,56.033333 132.271759,61.450516 125.603645,65.870949 
	C126.551216,53.970703 131.872833,45.365429 138.015671,37.234959 
	C133.680634,31.485325 127.803864,31.350882 124.181664,36.988556 
	C121.798080,40.698425 120.107819,44.848732 117.796753,48.611187 
	C111.788254,58.393124 104.004723,65.931564 91.739922,67.274124 
	C91.297234,64.661194 90.126770,61.913441 90.580063,59.466480 
	C91.284531,55.663589 93.093765,52.065346 94.422112,48.300919 
	C94.422112,48.300919 94.502525,48.302444 95.032562,47.971073 
	C95.843170,46.475277 96.653770,44.979477 97.439835,43.416492 
	C97.439835,43.416492 97.450607,43.345779 97.952209,43.201088 
	C98.080391,42.885273 98.208580,42.569462 98.189720,42.322235 
	C98.189720,42.322235 98.351845,42.315659 98.888214,42.072792 
	C99.318825,41.422222 99.749443,40.771648 100.096672,40.072952 
	C100.096672,40.072952 100.079735,40.167728 100.606079,39.991844 
	C100.780846,39.676895 100.955612,39.361950 101.040909,39.038784 
	C101.040909,39.038784 101.050201,39.128147 101.563835,38.947723 
	C101.743668,38.642693 101.923500,38.337662 102.026779,38.026836 
	C102.026779,38.026836 102.034096,38.103268 102.552353,37.936043 
	C102.745178,37.640587 102.938004,37.345135 103.033035,37.044651 
	C103.033035,37.044651 103.044937,37.141846 103.572990,37.034519 
	C103.961784,36.681698 104.350578,36.328876 105.529312,36.032761 
	C105.778458,37.127510 106.571007,38.490349 106.185410,39.271957 
	C104.208664,43.278797 101.928589,47.135990 99.744026,51.064339 
	C106.662849,53.192154 113.045616,48.926563 115.042290,40.956985 
	C116.165634,36.473236 114.153259,32.175575 109.994705,30.177263 
	C105.759338,28.142036 98.242912,28.949682 95.123016,32.485104 
	C90.573349,37.640743 86.553490,43.261459 82.244423,48.633091 
	C80.510742,50.794277 78.609421,52.820992 75.950752,55.862640 
	C77.170769,49.277218 79.006485,44.218418 78.701035,39.292381 
	C78.501221,36.069939 75.872276,31.914486 73.090889,30.250885 
	C70.486710,28.693275 65.452133,28.541641 62.880230,30.088100 
	C55.307461,34.641537 48.607342,40.437008 44.176453,48.501888 
	C42.320290,51.880383 39.847218,55.300884 34.965324,54.028511 
	C36.128944,47.176865 37.292564,40.325214 38.415947,33.410698 
	C38.415947,33.410698 38.475067,33.365135 38.945671,33.225475 
	C39.238495,33.017632 39.381416,32.734085 39.448204,32.385738 
	C39.448204,32.385738 39.522469,32.392494 40.026558,32.202755 
	C39.806595,31.363338 39.586632,30.523924 39.322487,29.676271 
	C39.322487,29.676271 39.329411,29.720671 39.197979,29.196739 
	C38.902245,29.017618 38.606510,28.838497 38.091091,28.991451 
M146.069672,11.883140 
	C146.069672,11.883140 146.169800,11.846126 145.819733,11.342643 
	C145.226105,11.276329 144.632462,11.210014 143.232361,11.014823 
	C137.460541,11.233648 132.778152,16.280188 133.028229,22.244280 
	C133.181915,25.909389 134.464508,28.720097 139.699326,28.177023 
	C141.881165,25.136560 144.063004,22.096100 146.724075,18.824577 
	C147.161636,18.278494 147.599213,17.732409 148.690140,16.901464 
	C150.928665,15.199782 150.390823,13.896852 148.019592,12.927927 
	C148.019592,12.927927 148.136246,12.895406 147.828705,12.349898 
	C147.243866,12.158760 146.659042,11.967622 146.069672,11.883140 
z"/>
<path fill="#ED11E4" opacity="1.000000" stroke="none" 
	d="
M328.965637,74.765564 
	C323.626160,75.062843 321.836212,74.013214 318.949615,68.678787 
	C314.917755,70.993935 310.856781,74.273117 305.710297,69.782326 
	C305.406311,63.929993 305.406311,58.724552 305.406311,53.519108 
	C305.133148,53.432159 304.859985,53.345207 304.586853,53.258259 
	C303.701965,56.152184 302.817108,59.046112 301.932251,61.940037 
	C299.680878,65.222641 297.616699,68.654884 295.138123,71.755875 
	C290.370453,77.720749 283.765411,77.225746 279.978546,70.510849 
	C278.109589,67.196770 276.605194,67.062546 274.162262,69.737099 
	C272.944427,71.070419 271.410583,72.154228 269.900055,73.173622 
	C265.720551,75.994110 261.018768,75.998207 257.267181,73.208839 
	C253.400604,70.333923 253.005783,65.400208 254.653549,61.112720 
	C256.388855,56.597485 259.294525,52.546387 261.360931,48.138763 
	C262.629578,45.432770 265.681702,42.833229 262.569366,38.625320 
	C261.544891,40.040771 260.632690,41.067596 259.980072,42.239021 
	C253.754578,53.413631 246.100952,63.320782 235.528427,70.808830 
	C234.036789,71.865280 233.271759,73.966003 232.211639,75.609932 
	C228.987671,80.609306 226.356415,86.135109 222.436050,90.506882 
	C216.770157,96.825195 207.770309,97.419601 201.964249,92.903656 
	C198.140411,89.929474 198.208633,86.823181 202.394348,83.986526 
	C205.618240,81.801704 208.855240,79.459312 212.417068,77.986847 
	C219.885147,74.899536 224.349106,69.624863 226.074921,61.121613 
	C226.206940,59.497681 226.206940,58.543297 226.206940,57.588909 
	C225.677338,57.506668 225.147736,57.424427 224.618134,57.342186 
	C223.895477,59.334385 223.172806,61.326588 222.450134,63.318787 
	C222.450134,63.318787 222.458466,63.246975 222.096497,63.309326 
	C221.537582,63.970612 221.340652,64.569550 221.143707,65.168480 
	C221.143707,65.168480 221.091370,65.084641 220.870697,65.178909 
	C220.504425,65.606743 220.358841,65.940308 220.213257,66.273872 
	C220.213257,66.273872 220.191025,66.154739 219.955154,66.230896 
	C219.607254,66.651169 219.495224,66.995277 219.383209,67.339386 
	C219.383209,67.339386 219.454941,67.216911 219.106567,67.295547 
	C218.529129,67.951866 218.300049,68.529556 218.070984,69.107239 
	C218.070984,69.107239 218.029861,69.035408 217.819427,69.137924 
	C217.428375,69.543076 217.247742,69.845703 217.067108,70.148331 
	C217.067108,70.148331 217.054276,70.052658 216.842300,70.150177 
	C216.446976,70.554131 216.263611,70.860565 216.080261,71.166992 
	C216.080261,71.167000 216.063980,71.065948 215.853653,71.153152 
	C215.443176,71.532944 215.243027,71.825531 215.042892,72.118118 
	C215.042892,72.118118 215.036682,72.038681 214.835495,72.114975 
	C214.414810,72.436028 214.195297,72.680779 213.975800,72.925537 
	C213.975800,72.925537 213.786499,73.132820 213.356201,73.147263 
	C212.620239,73.381424 212.314545,73.601158 212.008865,73.820885 
	C206.566391,74.960945 202.996185,72.239296 199.931290,67.193855 
	C191.767258,75.455833 183.582657,79.947678 177.009979,66.183846 
	C167.930084,73.621239 166.328629,73.850044 161.287964,68.153191 
	C161.564636,62.674133 161.881424,57.809376 162.198227,52.944614 
	C162.042267,52.843346 161.886292,52.742081 161.730331,52.640812 
	C160.784943,55.619427 159.839569,58.598038 158.894180,61.576653 
	C156.764572,64.745033 154.816879,68.056068 152.467606,71.052200 
	C147.526749,77.353485 141.737549,77.351303 136.821381,71.063324 
	C135.481400,69.349434 134.849625,67.827980 132.301422,69.703033 
	C122.209282,77.129158 118.495377,76.356674 112.041153,65.468475 
	C110.603333,66.600906 109.358269,67.989334 107.804398,68.729111 
	C103.088730,70.974182 98.423172,74.045738 93.429047,74.831779 
	C83.593567,76.379799 79.396683,72.872147 77.375885,60.562813 
	C73.525826,63.323349 70.157692,65.659157 66.878242,68.113480 
	C63.976139,70.285408 61.465019,73.209312 58.269531,74.715485 
	C49.610088,78.797050 39.501762,72.185120 39.684464,60.560829 
	C35.205006,60.892017 35.205009,60.892017 34.951851,65.078224 
	C34.370701,74.688019 25.537327,79.449165 17.626060,73.887100 
	C13.221623,70.790535 9.121510,66.750504 6.123345,62.300770 
	C2.792745,57.357655 5.485368,53.723423 11.478905,54.051834 
	C13.272828,54.150135 15.043226,54.735790 16.816715,55.132519 
	C18.557627,55.521961 20.288767,55.955082 22.488960,56.479889 
	C22.933195,52.371407 23.327398,48.725643 23.727705,45.023430 
	C20.141607,43.243237 19.134531,53.059074 14.569057,46.616486 
	C17.379324,41.779736 20.142284,36.660576 23.259806,31.767307 
	C26.043030,27.398752 29.895775,24.836851 35.849876,26.917934 
	C36.605644,27.529644 36.939896,27.643902 37.274147,27.758158 
	C37.274147,27.758158 37.129482,27.797903 37.221466,28.035639 
	C37.654232,28.407991 37.995010,28.542606 38.335789,28.677223 
	C38.335789,28.677223 38.091091,28.991451 38.209602,29.123302 
	C38.661880,29.410324 38.995644,29.565498 39.329411,29.720671 
	C39.329411,29.720671 39.322487,29.676271 39.237640,30.133984 
	C39.276020,31.191961 39.399246,31.792227 39.522469,32.392494 
	C39.522469,32.392494 39.448204,32.385738 39.111465,32.366199 
	C38.674839,32.686153 38.574955,33.025642 38.475067,33.365135 
	C38.475067,33.365135 38.415947,33.410698 38.052814,33.393059 
	C32.013058,40.235077 33.610004,48.369194 32.899258,57.562954 
	C34.255184,55.892853 34.649986,55.406570 35.044792,54.920284 
	C39.847218,55.300884 42.320290,51.880383 44.176453,48.501888 
	C48.607342,40.437008 55.307461,34.641537 62.880230,30.088100 
	C65.452133,28.541641 70.486710,28.693275 73.090889,30.250885 
	C75.872276,31.914486 78.501221,36.069939 78.701035,39.292381 
	C79.006485,44.218418 77.170769,49.277218 75.950752,55.862640 
	C78.609421,52.820992 80.510742,50.794277 82.244423,48.633091 
	C86.553490,43.261459 90.573349,37.640743 95.123016,32.485104 
	C98.242912,28.949682 105.759338,28.142036 109.994705,30.177263 
	C114.153259,32.175575 116.165634,36.473236 115.042290,40.956985 
	C113.045616,48.926563 106.662849,53.192154 99.744026,51.064339 
	C101.928589,47.135990 104.208664,43.278797 106.185410,39.271957 
	C106.571007,38.490349 105.778458,37.127510 104.861435,36.045601 
	C103.810684,36.419575 103.427811,36.780712 103.044937,37.141846 
	C103.044937,37.141846 103.033035,37.044651 102.828751,37.139061 
	C102.427681,37.523407 102.230888,37.813339 102.034096,38.103268 
	C102.034096,38.103268 102.026779,38.026836 101.816360,38.131737 
	C101.420700,38.533806 101.235451,38.830978 101.050201,39.128147 
	C101.050201,39.128147 101.040909,39.038784 100.829926,39.142357 
	C100.439201,39.553196 100.259468,39.860462 100.079735,40.167728 
	C100.079735,40.167728 100.096672,40.072952 99.776886,40.100258 
	C99.088684,40.856926 98.720261,41.586292 98.351845,42.315659 
	C98.351845,42.315659 98.189720,42.322235 97.966309,42.318062 
	C97.645470,42.657848 97.548042,43.001816 97.450607,43.345779 
	C97.450607,43.345779 97.439835,43.416492 97.077736,43.388729 
	C95.977936,45.008125 95.240227,46.655285 94.502525,48.302444 
	C94.502525,48.302444 94.422112,48.300919 94.048279,48.322708 
	C91.791153,53.121635 89.522270,57.801838 88.280815,62.740318 
	C87.947540,64.066086 90.743294,66.178436 92.102646,67.929703 
	C104.004723,65.931564 111.788254,58.393124 117.796753,48.611187 
	C120.107819,44.848732 121.798080,40.698425 124.181664,36.988556 
	C127.803864,31.350882 133.680634,31.485325 138.015671,37.234959 
	C131.872833,45.365429 126.551216,53.970703 125.603645,65.870949 
	C132.271759,61.450516 135.882065,56.033333 138.888840,50.321644 
	C142.972351,42.564594 148.374619,36.092838 155.594910,31.190725 
	C161.252731,27.349413 170.653458,28.505051 174.811859,33.405048 
	C176.719040,35.652328 177.816284,38.266609 174.823318,40.238186 
	C172.367462,41.855942 170.940323,40.636826 169.742569,37.794750 
	C168.279465,34.323032 165.242264,35.716110 163.004028,37.257759 
	C155.074326,42.719566 151.028030,50.867264 148.032990,59.659252 
	C147.511902,61.188904 147.307770,62.826530 147.822250,64.892181 
	C151.211212,60.328823 154.502228,55.688000 158.026672,51.231800 
	C160.069824,48.648495 162.081924,45.406811 164.858566,44.225330 
	C167.365112,43.158779 171.146835,43.845783 173.905670,44.930630 
	C177.342789,46.282204 175.215576,48.729294 174.143372,51.039040 
	C172.604919,54.353119 171.666153,57.945560 170.471375,61.419167 
	C171.155762,61.803356 171.840164,62.187546 172.524551,62.571739 
	C175.701675,58.386536 179.331711,54.466587 181.968262,49.964787 
	C188.973099,38.004253 195.422775,25.719421 202.368912,13.723186 
	C204.612518,9.848403 210.890442,10.121814 213.227310,13.986927 
	C213.732574,14.822628 213.327454,16.783136 212.635468,17.681757 
	C202.984818,30.214315 196.327957,44.291962 191.084396,59.095436 
	C190.357773,61.146793 190.269638,63.424301 189.885910,65.597115 
	C190.486664,65.937019 191.087418,66.276917 191.688187,66.616821 
	C195.705017,61.375534 200.384369,56.505203 203.577393,50.802631 
	C207.942291,43.007168 213.204285,36.277058 220.525528,31.226435 
	C226.287247,27.251654 236.102829,28.580667 240.089142,33.721737 
	C241.794525,35.921154 242.615524,38.405899 239.892471,40.201481 
	C237.430435,41.824978 235.835464,40.794933 234.694214,37.891731 
	C234.288254,36.859005 231.165787,35.909901 229.878738,36.421227 
	C227.504974,37.364296 225.251068,39.126633 223.512314,41.056690 
	C217.515839,47.712944 213.525940,55.430725 212.845078,64.890282 
	C217.368652,59.171299 221.914001,53.469357 226.407913,47.727139 
	C229.249603,44.096092 232.578461,41.858292 237.837006,43.958038 
	C238.568130,44.594234 238.884369,44.734650 239.200623,44.875065 
	C239.200623,44.875065 239.100388,44.858368 239.108582,45.202431 
	C238.333801,49.812305 237.501617,54.070427 236.832672,58.354042 
	C236.752701,58.866158 237.560837,59.516960 237.957321,60.103477 
	C244.938629,56.994503 247.881287,50.211594 251.757431,44.429890 
	C254.428513,40.445660 257.857697,36.606827 256.373230,30.649790 
	C255.964798,29.010786 259.576508,25.412312 262.063416,24.239691 
	C265.568756,22.586868 268.711914,24.664968 271.057312,27.996094 
	C269.566071,29.888044 268.165131,31.665409 266.298492,34.033653 
	C268.369965,35.155903 269.994537,36.145679 271.708649,36.943020 
	C275.951996,38.916901 277.301605,42.059933 275.360168,46.303841 
	C273.217194,50.988369 270.756805,55.527176 268.586060,60.199791 
	C267.687042,62.134956 267.181213,64.252792 266.496582,66.287552 
	C267.149445,66.649582 267.802307,67.011612 268.455139,67.373634 
	C273.749329,60.544609 279.377411,53.943645 284.242279,46.821358 
	C288.954895,39.921917 293.748352,33.407242 301.764008,30.055866 
	C307.582123,27.623285 315.218475,29.119549 318.342499,34.008850 
	C319.270691,35.461502 319.257019,38.701172 318.238495,39.957619 
	C316.313171,42.332714 314.815552,39.929070 313.151001,38.493732 
	C311.789978,37.320103 309.363708,36.067890 307.928772,36.515320 
	C300.679596,38.775742 290.721283,55.130718 291.462799,64.412750 
	C295.712891,58.658688 299.347900,53.729458 302.991455,48.806568 
	C307.205566,43.112740 311.349609,41.549068 315.897797,43.973103 
	C318.572205,45.398487 319.896881,46.924862 317.922607,50.271500 
	C315.964935,53.589989 314.949188,57.464130 313.520355,61.094566 
	C314.158447,61.516251 314.796570,61.937939 315.434692,62.359623 
	C318.314545,58.845684 321.574036,55.571571 323.982147,51.759621 
	C327.304016,46.501308 330.054108,40.873600 332.912659,35.333721 
	C334.777924,31.718952 337.386841,30.188187 341.821167,32.018837 
	C342.578796,32.581524 342.897919,32.703514 343.217041,32.825500 
	C343.217041,32.825500 343.106964,32.864460 343.201050,33.089104 
	C343.626831,33.454292 343.958557,33.594833 344.290283,33.735374 
	C344.290283,33.735378 344.329712,33.751072 344.226746,34.187767 
	C344.264832,35.538513 344.405914,36.452564 344.546997,37.366611 
	C344.546997,37.366611 344.463013,37.358929 344.075317,37.358883 
	C340.821503,41.546242 337.955383,45.733646 335.089233,49.921051 
	C335.624573,50.275070 336.159912,50.629089 336.695251,50.983109 
	C338.790436,48.147816 340.885620,45.312519 343.312988,42.231754 
	C343.776398,41.321369 343.907654,40.656456 344.018280,39.991676 
	C343.997650,39.991802 344.011719,40.029705 344.011719,40.029705 
	C346.183868,38.641136 348.368713,37.271896 350.525879,35.860455 
	C357.522217,31.282755 362.353088,33.364849 363.502808,41.503593 
	C370.022980,37.586147 373.249268,27.746902 383.836151,30.937866 
	C384.587036,31.563742 384.914978,31.692368 385.242950,31.820995 
	C385.242950,31.820997 385.120270,31.833841 385.209351,32.062675 
	C385.642334,32.395233 385.986206,32.498955 386.330078,32.602676 
	C386.330078,32.602676 386.254791,32.797684 386.299866,33.018303 
	C386.683899,33.373451 387.022858,33.507973 387.361847,33.642494 
	C387.361847,33.642494 387.390900,33.706287 387.269836,34.141624 
	C387.139801,36.434025 387.130798,38.291088 387.121796,40.148151 
	C387.121796,40.148151 387.097382,40.029118 386.779968,40.072559 
	C382.665741,47.219494 378.829285,54.302853 375.182922,61.482761 
	C374.989746,61.863136 376.404480,63.060059 377.070679,63.876846 
	C381.801147,59.471611 386.556976,55.093060 391.238068,50.635941 
	C392.056732,49.856449 392.362213,48.263409 393.254333,47.896698 
	C394.791046,47.265049 396.602478,47.301807 398.298615,47.058056 
	C398.233978,48.491386 398.745026,50.407848 398.012512,51.280731 
	C392.701813,57.609142 387.507965,64.114830 381.533569,69.780281 
	C377.278656,73.815140 371.184418,74.008507 368.227203,71.688385 
	C364.035889,68.400063 362.887451,63.530506 364.967712,57.399014 
	C365.883270,54.700413 366.975708,52.061844 367.987854,49.396019 
	C367.604584,49.136463 367.221344,48.876907 366.838074,48.617352 
	C365.654205,50.172729 364.363312,51.659119 363.307556,53.297100 
	C360.698700,57.344704 357.834106,61.286308 355.752350,65.598793 
	C353.543274,70.174980 349.866943,69.863068 346.555756,68.541641 
	C343.173126,67.191704 342.030792,63.889999 343.425690,60.200737 
	C344.624420,57.030315 345.876221,53.879959 347.188477,50.033260 
	C347.851105,47.899357 348.429749,46.452927 349.148254,44.947872 
	C349.189545,44.923031 349.091034,44.956818 348.642517,45.021286 
	C346.547302,47.397320 344.802002,49.742676 343.056732,52.088032 
	C343.056732,52.088032 343.017853,52.010639 342.685120,52.046837 
	C341.606842,53.437172 340.861359,54.791306 340.115845,56.145432 
	C340.115845,56.145428 340.076202,56.031185 339.766144,56.071175 
	C335.959259,62.329292 332.462463,68.547424 328.965637,74.765564 
M66.308716,39.945206 
	C63.217194,42.714874 59.604858,45.094532 57.165199,48.352356 
	C54.075150,52.478687 55.280754,55.461185 60.397327,58.804504 
	C64.320450,57.082146 70.909363,42.117657 69.649025,37.272938 
	C69.370232,36.201283 67.948906,35.426861 67.053673,34.515575 
	C66.772926,34.761639 66.492188,35.007702 66.211449,35.253765 
	C66.452217,36.636967 66.692993,38.020172 66.308716,39.945206 
M17.697540,61.965061 
	C15.818353,61.288761 13.939164,60.612465 12.059977,59.936169 
	C11.735648,60.501968 11.411321,61.067768 11.086993,61.633568 
	C13.856236,63.529724 16.468945,65.788292 19.493017,67.094460 
	C20.365690,67.471390 22.421545,65.108963 25.135729,63.124477 
	C21.786917,62.543655 20.115601,62.253780 17.697540,61.965061 
M213.518829,87.009514 
	C214.659775,85.515236 215.800720,84.020966 217.203873,82.183304 
	C210.291611,83.138214 207.173004,86.173866 209.051682,90.131531 
	C210.400620,89.254158 211.712296,88.401016 213.518829,87.009514 
M290.501709,64.610992 
	C290.501709,64.610992 290.654663,64.285774 290.654663,64.285774 
	C290.654663,64.285774 290.372803,64.349319 290.501709,64.610992 
z"/>
<path fill="#ED0EE1" opacity="1.000000" stroke="none" 
	d="
M138.983978,28.057449 
	C134.464508,28.720097 133.181915,25.909389 133.028229,22.244280 
	C132.778152,16.280188 137.460541,11.233648 143.831757,11.305231 
	C145.010696,11.679134 145.590240,11.762630 146.169800,11.846125 
	C146.169800,11.846126 146.069672,11.883140 146.203949,12.129436 
	C146.937576,12.548956 147.536911,12.722181 148.136246,12.895407 
	C148.136246,12.895406 148.019592,12.927927 148.025101,13.320013 
	C148.032654,14.870173 148.034714,16.028248 148.036774,17.186325 
	C147.599213,17.732409 147.161636,18.278494 146.115295,18.946625 
	C143.332336,22.064932 141.158157,25.061192 138.983978,28.057449 
z"/>
<path fill="#FE12FD" opacity="1.000000" stroke="none" 
	d="
M377.052002,63.490280 
	C376.404480,63.060059 374.989746,61.863136 375.182922,61.482761 
	C378.829285,54.302853 382.665741,47.219494 386.821136,40.117249 
	C384.178101,46.007710 381.090057,51.855457 378.232605,57.813808 
	C377.470337,59.403263 377.413849,61.331184 377.052002,63.490280 
z"/>
<path fill="#FE15FD" opacity="1.000000" stroke="none" 
	d="
M35.005058,54.474396 
	C34.649986,55.406570 34.255184,55.892853 32.899258,57.562954 
	C33.610004,48.369194 32.013058,40.235077 38.072933,33.424496 
	C37.292564,40.325214 36.128944,47.176865 35.005058,54.474396 
z"/>
<path fill="#FE11FD" opacity="1.000000" stroke="none" 
	d="
M329.312012,74.777649 
	C332.462463,68.547424 335.959259,62.329292 339.812622,56.109840 
	C336.665588,62.335594 333.161987,68.562660 329.312012,74.777649 
z"/>
<path fill="#FD10FB" opacity="1.000000" stroke="none" 
	d="
M91.921280,67.601913 
	C90.743294,66.178436 87.947540,64.066086 88.280815,62.740318 
	C89.522270,57.801838 91.791153,53.121635 94.054581,48.362427 
	C93.093765,52.065346 91.284531,55.663589 90.580063,59.466480 
	C90.126770,61.913441 91.297234,64.661194 91.921280,67.601913 
z"/>
<path fill="#2DE6FD" opacity="1.000000" stroke="none" 
	d="
M301.990112,62.346817 
	C302.817108,59.046112 303.701965,56.152184 304.586853,53.258259 
	C304.859985,53.345207 305.133148,53.432159 305.406311,53.519108 
	C305.406311,58.724552 305.406311,63.929993 305.404968,69.496811 
	C304.285065,67.489990 303.166504,65.121788 301.990112,62.346817 
z"/>
<path fill="#F61EFE" opacity="1.000000" stroke="none" 
	d="
M342.980835,42.477230 
	C340.885620,45.312519 338.790436,48.147816 336.695251,50.983109 
	C336.159912,50.629089 335.624573,50.275070 335.089233,49.921051 
	C337.955383,45.733646 340.821503,41.546242 344.053528,37.394958 
	C344.193085,38.082283 343.966766,38.733482 343.876099,39.707195 
	C344.011719,40.029705 343.997650,39.991802 343.635254,40.072281 
	C343.175476,40.927582 343.078156,41.702408 342.980835,42.477230 
z"/>
<path fill="#26E7FD" opacity="1.000000" stroke="none" 
	d="
M158.938538,61.997429 
	C159.839569,58.598038 160.784943,55.619427 161.730331,52.640812 
	C161.886292,52.742081 162.042267,52.843346 162.198227,52.944614 
	C161.881424,57.809376 161.564636,62.674133 161.096130,67.860077 
	C160.290588,66.260246 159.636749,64.339226 158.938538,61.997429 
z"/>
<path fill="#FB12FD" opacity="1.000000" stroke="none" 
	d="
M238.049423,59.732319 
	C237.560837,59.516960 236.752701,58.866158 236.832672,58.354042 
	C237.501617,54.070427 238.333801,49.812305 239.144318,45.166313 
	C239.739090,46.632301 240.956482,48.562805 240.730347,50.306076 
	C240.331055,53.384571 239.052200,56.348988 238.049423,59.732319 
z"/>
<path fill="#FE0FFC" opacity="1.000000" stroke="none" 
	d="
M139.341644,28.117237 
	C141.158157,25.061192 143.332336,22.064932 145.875687,19.062155 
	C144.063004,22.096100 141.881165,25.136560 139.341644,28.117237 
z"/>
<path fill="#FE11FD" opacity="1.000000" stroke="none" 
	d="
M343.346252,51.927582 
	C344.802002,49.742676 346.547302,47.397320 348.646240,45.025879 
	C348.999908,44.999790 349.008423,45.006500 349.008423,45.006500 
	C348.429749,46.452927 347.851105,47.899357 347.100189,49.645401 
	C345.830566,50.552387 344.733154,51.159760 343.346252,51.927582 
z"/>
<path fill="#FD14FC" opacity="1.000000" stroke="none" 
	d="
M222.721741,63.163837 
	C223.172806,61.326588 223.895477,59.334385 224.618134,57.342186 
	C225.147736,57.424427 225.677338,57.506668 226.206940,57.588909 
	C226.206940,58.543297 226.206940,59.497681 226.080261,60.742905 
	C224.966843,61.692120 223.980087,62.350502 222.721741,63.163837 
z"/>
<path fill="#FE12FD" opacity="1.000000" stroke="none" 
	d="
M387.436035,39.963661 
	C387.130798,38.291088 387.139801,36.434025 387.301178,34.125916 
	C390.104218,35.585590 389.374634,37.660633 387.436035,39.963661 
z"/>
<path fill="#FD10FB" opacity="1.000000" stroke="none" 
	d="
M94.767548,48.136757 
	C95.240227,46.655285 95.977936,45.008125 97.090012,43.422325 
	C96.653770,44.979477 95.843170,46.475277 94.767548,48.136757 
z"/>
<path fill="#FE11FD" opacity="1.000000" stroke="none" 
	d="
M340.403168,55.995338 
	C340.861359,54.791306 341.606842,53.437172 342.723572,52.066711 
	C342.293365,53.315334 341.491913,54.580288 340.403168,55.995338 
z"/>
<path fill="#FE0FFC" opacity="1.000000" stroke="none" 
	d="
M148.363464,17.043894 
	C148.034714,16.028248 148.032654,14.870173 148.069046,13.278357 
	C150.390823,13.896852 150.928665,15.199782 148.363464,17.043894 
z"/>
<path fill="#F61EFE" opacity="1.000000" stroke="none" 
	d="
M344.825317,37.239586 
	C344.405914,36.452564 344.264832,35.538513 344.229614,34.166744 
	C344.591522,34.843540 344.847565,35.978050 344.825317,37.239586 
z"/>
<path fill="#FD10FB" opacity="1.000000" stroke="none" 
	d="
M98.620026,42.194225 
	C98.720261,41.586292 99.088684,40.856926 99.818573,40.124321 
	C99.749443,40.771648 99.318825,41.422222 98.620026,42.194225 
z"/>
<path fill="#FE15FD" opacity="1.000000" stroke="none" 
	d="
M39.774513,32.297623 
	C39.399246,31.792227 39.276020,31.191961 39.259731,30.138102 
	C39.586632,30.523924 39.806595,31.363338 39.774513,32.297623 
z"/>
<path fill="#FE0FFC" opacity="1.000000" stroke="none" 
	d="
M145.994766,11.594383 
	C145.590240,11.762630 145.010696,11.679134 144.234985,11.369669 
	C144.632462,11.210014 145.226105,11.276329 145.994766,11.594383 
z"/>
<path fill="#FD14FC" opacity="1.000000" stroke="none" 
	d="
M218.344009,68.988892 
	C218.300049,68.529556 218.529129,67.951866 219.093307,67.365265 
	C219.157959,67.861084 218.887497,68.365814 218.344009,68.988892 
z"/>
<path fill="#FD14FC" opacity="1.000000" stroke="none" 
	d="
M221.415222,65.036324 
	C221.340652,64.569550 221.537582,63.970612 222.073044,63.336750 
	C222.169952,63.835941 221.928345,64.370049 221.415222,65.036324 
z"/>
<path fill="#FE0FFC" opacity="1.000000" stroke="none" 
	d="
M147.982483,12.622652 
	C147.536911,12.722181 146.937576,12.548956 146.206223,12.076107 
	C146.659042,11.967622 147.243866,12.158760 147.982483,12.622652 
z"/>
<path fill="#FD10FB" opacity="1.000000" stroke="none" 
	d="
M103.308960,37.088184 
	C103.427811,36.780712 103.810684,36.419575 104.466461,36.017250 
	C104.350578,36.328876 103.961784,36.681698 103.308960,37.088184 
z"/>
<path fill="#FE12FD" opacity="1.000000" stroke="none" 
	d="
M386.241028,32.350269 
	C385.986206,32.498955 385.642334,32.395233 385.233032,32.005730 
	C385.495728,31.845917 385.823853,31.971888 386.241028,32.350269 
z"/>
<path fill="#FD10FB" opacity="1.000000" stroke="none" 
	d="
M97.701408,43.273434 
	C97.548042,43.001816 97.645470,42.657848 98.039841,42.283768 
	C98.208580,42.569462 98.080391,42.885273 97.701408,43.273434 
z"/>
<path fill="#FD14FC" opacity="1.000000" stroke="none" 
	d="
M212.305710,73.830002 
	C212.314545,73.601158 212.620239,73.381424 213.216431,73.134460 
	C213.205490,73.351189 212.904022,73.595154 212.305710,73.830002 
z"/>
<path fill="#FD14FC" opacity="1.000000" stroke="none" 
	d="
M214.236420,72.890625 
	C214.195297,72.680779 214.414810,72.436028 214.875000,72.120163 
	C214.909470,72.317940 214.703247,72.586830 214.236420,72.890625 
z"/>
<path fill="#FD14FC" opacity="1.000000" stroke="none" 
	d="
M215.311752,72.048431 
	C215.243027,71.825531 215.443176,71.532944 215.904465,71.159271 
	C215.970612,71.378372 215.775604,71.678566 215.311752,72.048431 
z"/>
<path fill="#FD14FC" opacity="1.000000" stroke="none" 
	d="
M216.344971,71.082748 
	C216.263611,70.860565 216.446976,70.554131 216.890274,70.155510 
	C216.970032,70.375046 216.789856,70.686768 216.344971,71.082748 
z"/>
<path fill="#FD14FC" opacity="1.000000" stroke="none" 
	d="
M217.327286,70.060028 
	C217.247742,69.845703 217.428375,69.543076 217.860779,69.139832 
	C217.937515,69.350052 217.762482,69.660881 217.327286,70.060028 
z"/>
<path fill="#F61EFE" opacity="1.000000" stroke="none" 
	d="
M344.200134,33.478989 
	C343.958557,33.594833 343.626831,33.454292 343.226044,33.036354 
	C343.474640,32.913506 343.792297,33.068054 344.200134,33.478989 
z"/>
<path fill="#FD14FC" opacity="1.000000" stroke="none" 
	d="
M219.635468,67.253067 
	C219.495224,66.995277 219.607254,66.651169 220.010010,66.256630 
	C220.163086,66.526382 220.025406,66.846573 219.635468,67.253067 
z"/>
<path fill="#FD14FC" opacity="1.000000" stroke="none" 
	d="
M220.477875,66.182220 
	C220.358841,65.940308 220.504425,65.606743 220.920059,65.181122 
	C221.040909,65.422905 220.891708,65.756737 220.477875,66.182220 
z"/>
<path fill="#FE12FD" opacity="1.000000" stroke="none" 
	d="
M387.304535,33.388695 
	C387.022858,33.507973 386.683899,33.373451 386.366760,32.938011 
	C386.674805,32.803024 386.961029,32.968960 387.304535,33.388695 
z"/>
<path fill="#F61EFE" opacity="1.000000" stroke="none" 
	d="
M343.107605,32.575314 
	C342.897919,32.703514 342.578796,32.581524 342.124268,32.233498 
	C342.325317,32.113350 342.661713,32.219234 343.107605,32.575314 
z"/>
<path fill="#FD10FB" opacity="1.000000" stroke="none" 
	d="
M102.293228,38.019653 
	C102.230888,37.813339 102.427681,37.523407 102.877655,37.141579 
	C102.938004,37.345135 102.745178,37.640587 102.293228,38.019653 
z"/>
<path fill="#FE15FD" opacity="1.000000" stroke="none" 
	d="
M38.710369,33.295303 
	C38.574955,33.025642 38.674839,32.686153 39.074581,32.360748 
	C39.381416,32.734085 39.238495,33.017632 38.710369,33.295303 
z"/>
<path fill="#FD10FB" opacity="1.000000" stroke="none" 
	d="
M101.307022,39.037933 
	C101.235451,38.830978 101.420700,38.533806 101.854637,38.134632 
	C101.923500,38.337662 101.743668,38.642693 101.307022,39.037933 
z"/>
<path fill="#FE15FD" opacity="1.000000" stroke="none" 
	d="
M37.164169,27.501911 
	C36.939896,27.643902 36.605644,27.529644 36.139175,27.175140 
	C36.356033,27.038483 36.705109,27.142075 37.164169,27.501911 
z"/>
<path fill="#FD10FB" opacity="1.000000" stroke="none" 
	d="
M100.342911,40.079788 
	C100.259468,39.860462 100.439201,39.553196 100.874664,39.146469 
	C100.955612,39.361950 100.780846,39.676895 100.342911,40.079788 
z"/>
<path fill="#FE15FD" opacity="1.000000" stroke="none" 
	d="
M38.255440,28.418064 
	C37.995010,28.542606 37.654232,28.407991 37.271896,27.980108 
	C37.545261,27.844196 37.860176,28.001551 38.255440,28.418064 
z"/>
<path fill="#FE15FD" opacity="1.000000" stroke="none" 
	d="
M39.263695,29.458706 
	C38.995644,29.565498 38.661880,29.410324 38.319443,28.957264 
	C38.606510,28.838497 38.902245,29.017618 39.263695,29.458706 
z"/>
<path fill="#FE12FD" opacity="1.000000" stroke="none" 
	d="
M385.137878,31.561619 
	C384.914978,31.692368 384.587036,31.563742 384.126953,31.197819 
	C384.340820,31.074429 384.686829,31.188337 385.137878,31.561619 
z"/>
<path fill="#FB12FD" opacity="1.000000" stroke="none" 
	d="
M239.099030,44.618454 
	C238.884369,44.734650 238.568130,44.594234 238.120605,44.222893 
	C238.325363,44.115253 238.661392,44.238548 239.099030,44.618454 
z"/>
<path fill="#FDF8FF" opacity="1.000000" stroke="none" 
	d="
M60.003937,58.252731 
	C55.280754,55.461185 54.075150,52.478687 57.165199,48.352356 
	C59.604858,45.094532 63.217194,42.714874 66.706924,40.075333 
	C64.738075,46.221218 62.371006,52.236977 60.003937,58.252731 
z"/>
<path fill="#30EBFD" opacity="1.000000" stroke="none" 
	d="
M60.200634,58.528618 
	C62.371006,52.236977 64.738075,46.221218 67.019455,39.804417 
	C66.692993,38.020172 66.452217,36.636967 66.211449,35.253765 
	C66.492188,35.007702 66.772926,34.761639 67.053673,34.515575 
	C67.948906,35.426861 69.370232,36.201283 69.649025,37.272938 
	C70.909363,42.117657 64.320450,57.082146 60.200634,58.528618 
z"/>
<path fill="#EBECFF" opacity="1.000000" stroke="none" 
	d="
M18.070911,61.964485 
	C20.115601,62.253780 21.786917,62.543655 25.135729,63.124477 
	C22.421545,65.108963 20.365690,67.471390 19.493017,67.094460 
	C16.468945,65.788292 13.856236,63.529724 11.086993,61.633568 
	C11.411321,61.067768 11.735648,60.501968 12.059977,59.936169 
	C13.939164,60.612465 15.818353,61.288761 18.070911,61.964485 
z"/>
<path fill="#E6F1FF" opacity="1.000000" stroke="none" 
	d="
M213.271393,87.278702 
	C211.712296,88.401016 210.400620,89.254158 209.051682,90.131531 
	C207.173004,86.173866 210.291611,83.138214 217.203873,82.183304 
	C215.800720,84.020966 214.659775,85.515236 213.271393,87.278702 
z"/>
<path fill="#FDFEFF" opacity="1.000000" stroke="none" 
	d="
M343.312988,42.231758 
	C343.078156,41.702408 343.175476,40.927582 343.655884,40.072151 
	C343.907654,40.656456 343.776398,41.321369 343.312988,42.231758 
z"/>
<path fill="#FDFEFF" opacity="1.000000" stroke="none" 
	d="
M290.437256,64.480156 
	C290.372803,64.349319 290.654663,64.285774 290.654663,64.285774 
	C290.654663,64.285774 290.501709,64.610992 290.437256,64.480156 
z"/>
<path fill="#FE11FD" opacity="1.000000" stroke="none" 
	d="
M348.996216,44.995201 
	C349.091034,44.956818 349.189545,44.923031 349.148254,44.947872 
	C349.008423,45.006500 348.999908,44.999790 348.996216,44.995201 
z"/>
</svg>